<svg width="16" height="15" viewBox="0 0 16 15" fill="none" xmlns="http://www.w3.org/2000/svg">
<g clip-path="url(#clip0_175_24)">
<path d="M2.55182 4.89795H2.51464C2.03802 4.89795 1.64941 5.2878 1.64941 5.76318V9.53024C1.64941 10.0075 2.03802 10.3961 2.51464 10.3961H2.55246C3.02907 10.3961 3.41769 10.0062 3.41769 9.53024V5.76315C3.41705 5.2878 3.02784 4.89795 2.55182 4.89795Z" fill="white"/>
<path d="M3.83154 10.9842C3.83154 11.4218 4.18915 11.7782 4.62672 11.7782H5.47646V13.813C5.47646 14.2908 5.86631 14.6794 6.34169 14.6794H6.37887C6.85612 14.6794 7.24534 14.2902 7.24534 13.813V11.7782H8.43286V13.813C8.43286 14.2908 8.82394 14.6794 9.29933 14.6794H9.33591C9.81313 14.6794 10.2017 14.2902 10.2017 13.813V11.7782H11.0521C11.489 11.7782 11.8467 11.4218 11.8467 10.9842V5.03613H3.83154V10.9842Z" fill="white"/>
<path d="M9.83572 1.42878L10.5107 0.386935C10.5541 0.321223 10.5348 0.231376 10.4685 0.188592C10.4028 0.145206 10.313 0.163193 10.2702 0.230743L9.57046 1.30857C9.04551 1.0935 8.45919 0.972652 7.84 0.972652C7.22021 0.972652 6.63512 1.0935 6.10894 1.30857L5.41045 0.230743C5.36769 0.163193 5.27718 0.145206 5.21087 0.188592C5.14455 0.231347 5.12533 0.321223 5.16872 0.386935L5.84428 1.42878C4.62639 2.02565 3.80518 3.15057 3.80518 4.44095C3.80518 4.52028 3.81015 4.59838 3.81696 4.67584H11.8636C11.8705 4.59838 11.8748 4.52028 11.8748 4.44095C11.8748 3.15057 11.053 2.02565 9.83572 1.42878ZM5.97444 3.29434C5.76061 3.29434 5.58707 3.12203 5.58707 2.9076C5.58707 2.69317 5.76061 2.52146 5.97444 2.52146C6.18951 2.52146 6.36182 2.69314 6.36182 2.9076C6.36182 3.12206 6.18827 3.29434 5.97444 3.29434ZM9.70496 3.29434C9.49113 3.29434 9.31758 3.12203 9.31758 2.9076C9.31758 2.69317 9.49113 2.52146 9.70496 2.52146C9.91939 2.52146 10.0917 2.69314 10.0917 2.9076C10.0917 3.12203 9.91939 3.29434 9.70496 3.29434Z" fill="white"/>
<path d="M13.1636 4.89795H13.1277C12.6511 4.89795 12.2612 5.2878 12.2612 5.76318V9.53024C12.2612 10.0075 12.6517 10.3961 13.1277 10.3961H13.1643C13.6415 10.3961 14.0295 10.0062 14.0295 9.53024V5.76315C14.0295 5.2878 13.6403 4.89795 13.1636 4.89795Z" fill="white"/>
</g>
<defs>
<clipPath id="clip0_175_24">
<rect width="14.5142" height="14.5142" fill="white" transform="translate(0.58252 0.165039)"/>
</clipPath>
</defs>
</svg>
