<svg width="16" height="15" viewBox="0 0 16 15" fill="none" xmlns="http://www.w3.org/2000/svg">
<g clip-path="url(#clip0_175_14)">
<path d="M10.7976 0.0483398C10.8314 0.0483398 10.8652 0.0483398 10.9009 0.0483398C10.9837 1.07191 10.5931 1.83672 10.1182 2.39057C9.65233 2.9406 9.01435 3.47406 7.9825 3.39311C7.91366 2.3842 8.30499 1.67611 8.77918 1.12354C9.21894 0.608564 10.0252 0.150315 10.7976 0.0483398Z" fill="white"/>
<path d="M13.9213 10.7022C13.9213 10.7124 13.9213 10.7213 13.9213 10.7309C13.6313 11.6091 13.2177 12.3618 12.7129 13.0604C12.2521 13.6945 11.6874 14.5479 10.6791 14.5479C9.80787 14.5479 9.22917 13.9877 8.33625 13.9724C7.39171 13.9571 6.87227 14.4408 6.00867 14.5626C5.90989 14.5626 5.8111 14.5626 5.71422 14.5626C5.08007 14.4708 4.56828 13.9686 4.19543 13.5161C3.09602 12.1789 2.24644 10.4517 2.08838 8.24141C2.08838 8.02472 2.08838 7.80866 2.08838 7.59196C2.1553 6.01008 2.92394 4.72392 3.9456 4.1006C4.48479 3.76918 5.22602 3.48684 6.05138 3.61303C6.4051 3.66784 6.76647 3.78894 7.08323 3.90876C7.38342 4.02412 7.75882 4.2287 8.11445 4.21787C8.35537 4.21086 8.59501 4.0853 8.83784 3.99671C9.54911 3.73986 10.2464 3.44541 11.1654 3.58371C12.2699 3.7507 13.0539 4.24145 13.5382 4.99861C12.6039 5.59326 11.8652 6.48936 11.9914 8.01962C12.1036 9.40966 12.9117 10.2229 13.9213 10.7022Z" fill="white"/>
</g>
<defs>
<clipPath id="clip0_175_14">
<rect width="14.5142" height="14.5142" fill="white" transform="translate(0.74707 0.0483398)"/>
</clipPath>
</defs>
</svg>
