<svg width="16" height="15" viewBox="0 0 16 15" fill="none" xmlns="http://www.w3.org/2000/svg">
<g clip-path="url(#clip0_175_40)">
<path d="M7.81836 7.57324C9.65535 7.57324 11.1445 6.08406 11.1445 4.24707C11.1445 2.41008 9.65535 0.920898 7.81836 0.920898C5.98137 0.920898 4.49219 2.41008 4.49219 4.24707C4.49219 6.08406 5.98137 7.57324 7.81836 7.57324Z" fill="white"/>
<path fill-rule="evenodd" clip-rule="evenodd" d="M8.68381 13.3259C8.05305 12.651 7.66721 11.7444 7.66721 10.7484C7.66721 9.73181 8.06938 8.80895 8.72252 8.1292C8.428 8.10682 8.12562 8.09473 7.8184 8.09473C5.8094 8.09473 4.0308 8.59728 2.92651 9.3502C2.08408 9.92473 1.61963 10.6547 1.61963 11.4209V12.2984C1.61963 12.5705 1.72788 12.8324 1.9208 13.0253C2.11372 13.2176 2.37497 13.3265 2.64772 13.3265L8.68381 13.3259Z" fill="white"/>
<path fill-rule="evenodd" clip-rule="evenodd" d="M11.447 7.57324C9.69436 7.57324 8.27197 8.99563 8.27197 10.7482C8.27197 12.5008 9.69436 13.9232 11.447 13.9232C13.1995 13.9232 14.6219 12.5008 14.6219 10.7482C14.6219 8.99563 13.1995 7.57324 11.447 7.57324ZM11.9005 10.2947V9.6899C11.9005 9.43953 11.6973 9.23633 11.447 9.23633C11.1966 9.23633 10.9934 9.43953 10.9934 9.6899V10.2947H10.3886C10.1383 10.2947 9.93506 10.4979 9.93506 10.7482C9.93506 10.9986 10.1383 11.2018 10.3886 11.2018H10.9934V11.8066C10.9934 12.0569 11.1966 12.2601 11.447 12.2601C11.6973 12.2601 11.9005 12.0569 11.9005 11.8066V11.2018H12.5053C12.7557 11.2018 12.9589 10.9986 12.9589 10.7482C12.9589 10.4979 12.7557 10.2947 12.5053 10.2947H11.9005Z" fill="white"/>
</g>
<defs>
<clipPath id="clip0_175_40">
<rect width="14.5142" height="14.5142" fill="white" transform="translate(0.86377 0.164551)"/>
</clipPath>
</defs>
</svg>
